<?xml version="1.0" encoding="utf-8"?>
<!-- Generator: Adobe Illustrator 26.0.1, SVG Export Plug-In . SVG Version: 6.00 Build 0)  -->
<svg version="1.1" id="Layer_1" xmlns="http://www.w3.org/2000/svg" xmlns:xlink="http://www.w3.org/1999/xlink" x="0px" y="0px"
	 viewBox="0 0 36 36" style="enable-background:new 0 0 36 36;" xml:space="preserve">
<style type="text/css">
	.st0{fill:none;stroke:#0092C5;stroke-width:1.6;stroke-miterlimit:10;}
	.st1{fill:#0092C5;}
</style>
<line class="st0" x1="9.9" y1="5.7" x2="9.9" y2="30.2"/>
<path class="st1" d="M9.9,28.1L9.9,28.1c-1.4,0-2.4-1-2.4-2.4l0,0c0-1.4,1-2.4,2.4-2.4l0,0c1.4,0,2.4,1,2.4,2.4l0,0
	C12.3,27,11.3,28.1,9.9,28.1z"/>
<line class="st0" x1="15.3" y1="5.7" x2="15.3" y2="30.2"/>
<path class="st1" d="M15.3,16.1L15.3,16.1c-1.4,0-2.4-1-2.4-2.4l0,0c0-1.4,1-2.4,2.4-2.4l0,0c1.4,0,2.4,1,2.4,2.4l0,0
	C17.7,15,16.7,16.1,15.3,16.1z"/>
<line class="st0" x1="20.7" y1="5.7" x2="20.7" y2="30.2"/>
<path class="st1" d="M20.7,23.6L20.7,23.6c-1.4,0-2.4-1-2.4-2.4l0,0c0-1.4,1-2.4,2.4-2.4l0,0c1.4,0,2.4,1,2.4,2.4l0,0
	C23.1,22.6,22.1,23.6,20.7,23.6z"/>
<line class="st0" x1="26.1" y1="5.7" x2="26.1" y2="30.2"/>
<path class="st1" d="M26.1,12.9L26.1,12.9c-1.4,0-2.4-1-2.4-2.4l0,0c0-1.4,1-2.4,2.4-2.4l0,0c1.4,0,2.4,1,2.4,2.4l0,0
	C28.5,11.8,27.5,12.9,26.1,12.9z"/>
</svg>
