<?xml version="1.0" encoding="utf-8"?>
<svg version="1.1" id="Layer_1" xmlns="http://www.w3.org/2000/svg" xmlns:xlink="http://www.w3.org/1999/xlink" x="0px" y="0px"
	 viewBox="0 0 36 36" style="enable-background:new 0 0 36 36;" xml:space="preserve">
<style type="text/css">
	.st0{fill:#FF3A21;}
	.st1{fill:#FFFFFF;}
</style>
<g id="Layer_1_1_">
	<g>
		<path class="st0" d="M34,18c0,8.8-7.2,16-16,16S2,26.8,2,18S9.2,2,18,2S34,9.2,34,18z"/>
		<g>
			<path class="st1" d="M23.3,21.4h0.9c0.2,0,0.4-0.2,0.4-0.4v-3h3c0.2,0,0.4-0.2,0.4-0.4v-0.9c0-0.2-0.2-0.4-0.4-0.4h-3v-3
				c0-0.2-0.2-0.4-0.4-0.4h-0.9c-0.2,0-0.4,0.2-0.4,0.4v3h-3c-0.2,0-0.4,0.2-0.4,0.4v0.9c0,0.2,0.2,0.4,0.4,0.4h3v3
				C22.9,21.3,23.1,21.4,23.3,21.4z"/>
			<path class="st1" d="M11.4,26.7c0.8,0.2,1.6,0.3,2.4,0.3c0.8,0,1.5-0.1,2.2-0.3c2.1-0.6,3.5-2.2,3.5-4c0-1.7-0.6-2.7-2-3.8
				c-0.6-0.5-1.2-1.1-1.2-1.3c0-0.4,0-0.5,0.9-1.2c1.1-0.8,1.7-1.9,1.7-3.1c0-1.1-0.3-2-0.9-2.7h0.4c0.1,0,0.2,0,0.2-0.1l1.2-0.9
				C19.9,9.5,20,9.3,20,9.1c-0.2,0-0.3-0.1-0.5-0.1h-5.3c-0.6,0-1.2,0.1-1.7,0.3c-1.9,0.7-3.3,2.3-3.3,4c0,2.4,1.9,4.2,4.3,4.3
				c0,0.2-0.1,0.4-0.1,0.6c0,0.4,0.1,0.7,0.3,1.1c0,0,0,0-0.1,0c-2.4,0-4.5,1.2-5.3,2.9C8.1,22.6,8,23,8,23.5c0,0.4,0.1,0.9,0.3,1.3
				C8.8,25.6,9.9,26.3,11.4,26.7z M11.9,13.3c-0.1-0.9,0.1-1.7,0.5-2.2c0.3-0.3,0.7-0.5,1.1-0.5l0,0c1.2,0,2.3,1.3,2.5,2.9
				c0.1,0.9-0.1,1.7-0.5,2.2c-0.3,0.3-0.6,0.5-1.1,0.5l0,0l0,0C13.2,16.2,12.1,14.8,11.9,13.3z M14.1,20.5L14.1,20.5
				c0.4,0,0.8,0.1,1.2,0.2c0.1,0.1,0.2,0.2,0.4,0.2c0.8,0.6,1.4,0.9,1.5,1.6c0,0.2,0.1,0.3,0.1,0.5c0,1.6-1.2,2.3-3.4,2.3
				c-1.7,0-3.1-1.1-3.1-2.4C10.7,21.6,12.3,20.5,14.1,20.5z"/>
		</g>
		<path class="st0" d="M34,18c0,8.8-7.2,16-16,16S2,26.8,2,18S9.2,2,18,2S34,9.2,34,18z"/>
		<g>
			<path class="st1" d="M23.3,21.4h0.9c0.2,0,0.4-0.2,0.4-0.4v-3h3c0.2,0,0.4-0.2,0.4-0.4v-0.9c0-0.2-0.2-0.4-0.4-0.4h-3v-3
				c0-0.2-0.2-0.4-0.4-0.4h-0.9c-0.2,0-0.4,0.2-0.4,0.4v3h-3c-0.2,0-0.4,0.2-0.4,0.4v0.9c0,0.2,0.2,0.4,0.4,0.4h3v3
				C22.9,21.3,23.1,21.4,23.3,21.4z"/>
			<path class="st1" d="M11.4,26.7c0.8,0.2,1.6,0.3,2.4,0.3c0.8,0,1.5-0.1,2.2-0.3c2.1-0.6,3.5-2.2,3.5-4c0-1.7-0.6-2.7-2-3.8
				c-0.6-0.5-1.2-1.1-1.2-1.3c0-0.4,0-0.5,0.9-1.2c1.1-0.8,1.7-1.9,1.7-3.1c0-1.1-0.3-2-0.9-2.7h0.4c0.1,0,0.2,0,0.2-0.1l1.2-0.9
				C19.9,9.5,20,9.3,20,9.1c-0.2,0-0.3-0.1-0.5-0.1h-5.3c-0.6,0-1.2,0.1-1.7,0.3c-1.9,0.7-3.3,2.3-3.3,4c0,2.4,1.9,4.2,4.3,4.3
				c0,0.2-0.1,0.4-0.1,0.6c0,0.4,0.1,0.7,0.3,1.1c0,0,0,0-0.1,0c-2.4,0-4.5,1.2-5.3,2.9C8.1,22.6,8,23,8,23.5c0,0.4,0.1,0.9,0.3,1.3
				C8.8,25.6,9.9,26.3,11.4,26.7z M11.9,13.3c-0.1-0.9,0.1-1.7,0.5-2.2c0.3-0.3,0.7-0.5,1.1-0.5l0,0c1.2,0,2.3,1.3,2.5,2.9
				c0.1,0.9-0.1,1.7-0.5,2.2c-0.3,0.3-0.6,0.5-1.1,0.5l0,0l0,0C13.2,16.2,12.1,14.8,11.9,13.3z M14.1,20.5L14.1,20.5
				c0.4,0,0.8,0.1,1.2,0.2c0.1,0.1,0.2,0.2,0.4,0.2c0.8,0.6,1.4,0.9,1.5,1.6c0,0.2,0.1,0.3,0.1,0.5c0,1.6-1.2,2.3-3.4,2.3
				c-1.7,0-3.1-1.1-3.1-2.4C10.7,21.6,12.3,20.5,14.1,20.5z"/>
		</g>
		<path class="st0" d="M34,18c0,8.8-7.2,16-16,16S2,26.8,2,18S9.2,2,18,2S34,9.2,34,18z"/>
		<g>
			<path class="st1" d="M23.3,21.4h0.9c0.2,0,0.4-0.2,0.4-0.4v-3h3c0.2,0,0.4-0.2,0.4-0.4v-0.9c0-0.2-0.2-0.4-0.4-0.4h-3v-3
				c0-0.2-0.2-0.4-0.4-0.4h-0.9c-0.2,0-0.4,0.2-0.4,0.4v3h-3c-0.2,0-0.4,0.2-0.4,0.4v0.9c0,0.2,0.2,0.4,0.4,0.4h3v3
				C22.9,21.3,23.1,21.4,23.3,21.4z"/>
			<path class="st1" d="M11.4,26.7c0.8,0.2,1.6,0.3,2.4,0.3c0.8,0,1.5-0.1,2.2-0.3c2.1-0.6,3.5-2.2,3.5-4c0-1.7-0.6-2.7-2-3.8
				c-0.6-0.5-1.2-1.1-1.2-1.3c0-0.4,0-0.5,0.9-1.2c1.1-0.8,1.7-1.9,1.7-3.1c0-1.1-0.3-2-0.9-2.7h0.4c0.1,0,0.2,0,0.2-0.1l1.2-0.9
				C19.9,9.5,20,9.3,20,9.1c-0.2,0-0.3-0.1-0.5-0.1h-5.3c-0.6,0-1.2,0.1-1.7,0.3c-1.9,0.7-3.3,2.3-3.3,4c0,2.4,1.9,4.2,4.3,4.3
				c0,0.2-0.1,0.4-0.1,0.6c0,0.4,0.1,0.7,0.3,1.1c0,0,0,0-0.1,0c-2.4,0-4.5,1.2-5.3,2.9C8.1,22.6,8,23,8,23.5c0,0.4,0.1,0.9,0.3,1.3
				C8.8,25.6,9.9,26.3,11.4,26.7z M11.9,13.3c-0.1-0.9,0.1-1.7,0.5-2.2c0.3-0.3,0.7-0.5,1.1-0.5l0,0c1.2,0,2.3,1.3,2.5,2.9
				c0.1,0.9-0.1,1.7-0.5,2.2c-0.3,0.3-0.6,0.5-1.1,0.5l0,0l0,0C13.2,16.2,12.1,14.8,11.9,13.3z M14.1,20.5L14.1,20.5
				c0.4,0,0.8,0.1,1.2,0.2c0.1,0.1,0.2,0.2,0.4,0.2c0.8,0.6,1.4,0.9,1.5,1.6c0,0.2,0.1,0.3,0.1,0.5c0,1.6-1.2,2.3-3.4,2.3
				c-1.7,0-3.1-1.1-3.1-2.4C10.7,21.6,12.3,20.5,14.1,20.5z"/>
		</g>
	</g>
</g>
</svg>
