<?xml version="1.0" encoding="utf-8"?>
<svg version="1.1" id="Layer_1" xmlns="http://www.w3.org/2000/svg" xmlns:xlink="http://www.w3.org/1999/xlink" x="0px" y="0px"
	 viewBox="0 0 36 36" style="enable-background:new 0 0 36 36;" xml:space="preserve">
<style type="text/css">
	.st0{fill:#46A1EE;}
	.st1{fill:#FFFFFF;}
</style>
<g id="Layer_1_1_">
	<path class="st0" d="M34,18c0,8.8-7.2,16-16,16S2,26.8,2,18S9.2,2,18,2S34,9.2,34,18z"/>
	<g>
		<path class="st1" d="M8.2,25.1c0.4,0.3,0.7,0.4,1.1,0.6c2.3,1.1,4.7,1.5,7.2,1.1c2.9-0.4,5.4-1.7,7.3-3.9c2.1-2.4,3.1-5.1,3.1-8.3
			c0-0.2,0.1-0.4,0.3-0.6c0.2-0.2,0.5-0.4,0.7-0.6c0.4-0.4,0.8-0.8,1.1-1.3c-0.7,0.2-1.4,0.5-2.2,0.5c0.1-0.2,0.3-0.3,0.4-0.4
			c0.5-0.4,0.9-0.9,1.2-1.5c0-0.1,0.1-0.2,0.1-0.3c-0.1-0.1-0.2,0-0.3,0.1c-0.6,0.3-1.2,0.5-1.9,0.7c-0.3,0.1-0.5,0-0.7-0.2
			c-1.3-1.2-3.3-1.4-4.9-0.6c-1.5,0.8-2.4,2.5-2.2,4.2c0.1,0.5,0,0.5-0.4,0.5c-0.1,0-0.1,0-0.2,0c-3.2-0.4-5.8-1.7-7.9-4.1
			c-0.2-0.2-0.3-0.2-0.4,0.1c-1.1,1.9-0.6,4,0.9,5.3c0.1,0.1,0.2,0.1,0.2,0.3c-0.5,0-0.9-0.1-1.3-0.3c-0.1,0-0.3-0.2-0.4-0.1
			c-0.2,0.1-0.1,0.3,0,0.5c0.3,1.7,1.3,2.9,3,3.5c0.1,0,0.2,0,0.3,0.2c-0.4,0.1-0.8,0.2-1.2,0.1c-0.1,0-0.3-0.1-0.4,0
			c-0.1,0.1,0,0.3,0.1,0.4c0.7,1.3,1.7,2,3.1,2.3c0.2,0,0.4,0.1,0.7,0.1C12.5,24.8,10.5,25.3,8.2,25.1z"/>
	</g>
</g>
</svg>
