<?xml version="1.0" encoding="utf-8"?>
<svg version="1.1" id="Layer_1" xmlns="http://www.w3.org/2000/svg" xmlns:xlink="http://www.w3.org/1999/xlink" x="0px" y="0px"
	 viewBox="0 0 36 36" style="enable-background:new 0 0 36 36;" xml:space="preserve">
<style type="text/css">
	.st0{fill:#666666;}
</style>
<g>
	<path class="st0" d="M14.9,16.3h-10c-0.6,0-1-0.4-1-1v-10c0-0.6,0.4-1,1-1h10c0.6,0,1,0.4,1,1v10C15.9,15.9,15.5,16.3,14.9,16.3z
		 M5.9,14.3h8v-8h-8C5.9,6.3,5.9,14.3,5.9,14.3z"/>
	<path class="st0" d="M30.9,16.3h-10c-0.6,0-1-0.4-1-1v-10c0-0.6,0.4-1,1-1h10c0.6,0,1,0.4,1,1v10C31.9,15.9,31.5,16.3,30.9,16.3z
		 M21.9,14.3h8v-8h-8V14.3z"/>
	<path class="st0" d="M14.9,31.3h-10c-0.6,0-1-0.4-1-1v-10c0-0.6,0.4-1,1-1h10c0.6,0,1,0.4,1,1v10C15.9,30.9,15.5,31.3,14.9,31.3z
		 M5.9,29.3h8v-8h-8C5.9,21.3,5.9,29.3,5.9,29.3z"/>
	<path class="st0" d="M30.9,31.3h-10c-0.6,0-1-0.4-1-1v-10c0-0.6,0.4-1,1-1h10c0.6,0,1,0.4,1,1v10C31.9,30.9,31.5,31.3,30.9,31.3z
		 M21.9,29.3h8v-8h-8V29.3z"/>
</g>
</svg>
