<?xml version="1.0" encoding="utf-8"?>
<!-- Generator: Adobe Illustrator 26.1.0, SVG Export Plug-In . SVG Version: 6.00 Build 0)  -->
<svg version="1.1" id="Layer_1" xmlns="http://www.w3.org/2000/svg" xmlns:xlink="http://www.w3.org/1999/xlink" x="0px" y="0px"
	 viewBox="0 0 36 36" style="enable-background:new 0 0 36 36;" xml:space="preserve">
<style type="text/css">
	.st0{fill:#FFFFFF;}
</style>
<g>
	<path class="st0" d="M10.5,6.5v4h-4v-4H10.5 M12.5,4.5h-8v8h8V4.5L12.5,4.5z"/>
</g>
<g>
	<path class="st0" d="M20,6.5v4h-4v-4H20 M22,4.5h-8v8h8V4.5L22,4.5z"/>
</g>
<g>
	<path class="st0" d="M29.5,6.5v4h-4v-4H29.5 M31.5,4.5h-8v8h8V4.5L31.5,4.5z"/>
</g>
<g>
	<path class="st0" d="M10.5,16v4h-4v-4H10.5 M12.5,14h-8v8h8V14L12.5,14z"/>
</g>
<g>
	<path class="st0" d="M20,16v4h-4v-4H20 M22,14h-8v8h8V14L22,14z"/>
</g>
<g>
	<path class="st0" d="M29.5,16v4h-4v-4H29.5 M31.5,14h-8v8h8V14L31.5,14z"/>
</g>
<g>
	<path class="st0" d="M10.5,25.5v4h-4v-4H10.5 M12.5,23.5h-8v8h8V23.5L12.5,23.5z"/>
</g>
<g>
	<path class="st0" d="M20,25.5v4h-4v-4H20 M22,23.5h-8v8h8V23.5L22,23.5z"/>
</g>
<g>
	<path class="st0" d="M29.5,25.5v4h-4v-4H29.5 M31.5,23.5h-8v8h8V23.5L31.5,23.5z"/>
</g>
</svg>
