<?xml version="1.0" encoding="utf-8"?>
<!-- Generator: Adobe Illustrator 26.1.0, SVG Export Plug-In . SVG Version: 6.00 Build 0)  -->
<svg version="1.1" id="Layer_1" xmlns="http://www.w3.org/2000/svg" xmlns:xlink="http://www.w3.org/1999/xlink" x="0px" y="0px"
	 viewBox="0 0 36 36" style="enable-background:new 0 0 36 36;" xml:space="preserve">
<style type="text/css">
	.st0{fill:#FFFFFF;}
</style>
<g id="Layer_1_1_">
	<path class="st0" d="M18,4c7.7,0,14,6.3,14,14s-6.3,14-14,14S4,25.7,4,18S10.3,4,18,4 M18,2C9.2,2,2,9.2,2,18s7.2,16,16,16
		s16-7.2,16-16S26.8,2,18,2L18,2z"/>
</g>
<g>
	<path class="st0" d="M16.6,25.4V16h-3v-1.5h4.8v9.4h3v1.5H16.6z M16.3,10.5c0-0.4,0.1-0.7,0.4-0.9s0.5-0.3,0.8-0.3
		c0.3,0,0.5,0.1,0.8,0.3s0.4,0.5,0.4,0.9s-0.1,0.7-0.4,0.9s-0.5,0.3-0.8,0.3c-0.2,0-0.5-0.1-0.8-0.3S16.3,11,16.3,10.5z"/>
</g>
</svg>
