<?xml version="1.0" encoding="utf-8"?>
<!-- Generator: Adobe Illustrator 24.2.1, SVG Export Plug-In . SVG Version: 6.00 Build 0)  -->
<svg version="1.1" id="Layer_1" xmlns="http://www.w3.org/2000/svg" xmlns:xlink="http://www.w3.org/1999/xlink" x="0px" y="0px"
	 viewBox="0 0 16 36" style="enable-background:new 0 0 16 36;" xml:space="preserve">
<style type="text/css">
	.st0{fill:#FFFFFF;}
</style>
<path class="st0" d="M8,7L8,7C6.3,7,5,5.7,5,4v0c0-1.7,1.3-3,3-3h0c1.7,0,3,1.3,3,3v0C11,5.7,9.7,7,8,7z"/>
<path class="st0" d="M8,21L8,21c-1.7,0-3-1.3-3-3v0c0-1.7,1.3-3,3-3h0c1.7,0,3,1.3,3,3v0C11,19.7,9.7,21,8,21z"/>
<path class="st0" d="M8,35L8,35c-1.7,0-3-1.3-3-3v0c0-1.7,1.3-3,3-3h0c1.7,0,3,1.3,3,3v0C11,33.7,9.7,35,8,35z"/>
</svg>
