<?xml version="1.0" encoding="utf-8"?>
<!-- Generator: Adobe Illustrator 26.0.1, SVG Export Plug-In . SVG Version: 6.00 Build 0)  -->
<svg version="1.1" id="Layer_1" xmlns="http://www.w3.org/2000/svg" xmlns:xlink="http://www.w3.org/1999/xlink" x="0px" y="0px"
	 viewBox="0 0 36 36" style="enable-background:new 0 0 36 36;" xml:space="preserve">
<style type="text/css">
	.st0{fill:#DDDDDD;}
</style>
<g>
	<polygon class="st0" points="19,12 17,12 17,17 12,17 12,19 17,19 17,24 19,24 19,19 24,19 24,17 19,17 	"/>
	<path class="st0" d="M18,3.3c-8.3,0-15,6.7-15,15s6.7,15,15,15s15-6.7,15-15S26.3,3.3,18,3.3z M18,31.3c-7.2,0-13-5.8-13-13
		s5.8-13,13-13s13,5.8,13,13S25.2,31.3,18,31.3z"/>
</g>
</svg>
