<?xml version="1.0" encoding="utf-8"?>
<!-- Generator: Adobe Illustrator 26.0.1, SVG Export Plug-In . SVG Version: 6.00 Build 0)  -->
<svg version="1.1" id="Layer_1" xmlns="http://www.w3.org/2000/svg" xmlns:xlink="http://www.w3.org/1999/xlink" x="0px" y="0px"
	 viewBox="0 0 36 36" style="enable-background:new 0 0 36 36;" xml:space="preserve">
<style type="text/css">
	.st0{fill:#666666;}
	.st1{fill:none;stroke:#666666;stroke-width:2;stroke-linecap:round;stroke-linejoin:round;stroke-miterlimit:10;}
	.st2{fill:none;stroke:#666666;stroke-width:1.9828;stroke-miterlimit:10;}
</style>
<g>
	<path class="st0" d="M16.6,21.4c0-1.2,0.1-1.8,0.3-2.3c0.2-0.5,0.6-0.9,1.3-1.3c0.2-0.1,0.4-0.2,0.7-0.4c0.3-0.1,0.6-0.3,0.8-0.5
		c0.3-0.2,0.5-0.4,0.7-0.7c0.2-0.3,0.3-0.6,0.3-0.9c0-0.3-0.1-0.5-0.2-0.7s-0.2-0.4-0.4-0.5c-0.2-0.1-0.4-0.2-0.6-0.3
		s-0.4-0.1-0.7-0.1c-0.3,0-0.5,0-0.8,0.1c-0.2,0.1-0.4,0.2-0.6,0.4s-0.3,0.3-0.5,0.5c-0.1,0.2-0.3,0.4-0.4,0.5l-1.7-1.1
		c0.2-0.4,0.4-0.7,0.7-1s0.6-0.6,0.9-0.8s0.7-0.4,1.1-0.5s0.8-0.2,1.3-0.2s1,0.1,1.4,0.2c0.5,0.1,0.9,0.4,1.3,0.7s0.7,0.7,0.9,1.2
		c0.2,0.5,0.4,1,0.4,1.7c0,0.4,0,0.8-0.1,1.1c-0.1,0.3-0.2,0.6-0.4,0.8c-0.2,0.3-0.4,0.5-0.6,0.7c-0.2,0.2-0.5,0.4-0.8,0.6
		s-0.5,0.3-0.8,0.4s-0.5,0.3-0.7,0.5s-0.4,0.4-0.5,0.6s-0.2,0.5-0.2,1.4h-2.1V21.4z M16.6,25.2v-2.6h2.1v2.6H16.6z"/>
</g>
<polyline class="st1" points="29.7,26 32.5,32.7 25.7,30 "/>
<path class="st2" d="M25.7,30c-2.2,1.4-4.8,2.2-7.6,2.2c-7.7,0-14-6.3-14-14s6.3-14,14-14s14,6.3,14,14c0,2.9-0.9,5.5-2.3,7.8"/>
</svg>
