<?xml version="1.0" encoding="utf-8"?>
<!-- Generator: Adobe Illustrator 26.0.3, SVG Export Plug-In . SVG Version: 6.00 Build 0)  -->
<svg version="1.1" id="Layer_1" xmlns="http://www.w3.org/2000/svg" xmlns:xlink="http://www.w3.org/1999/xlink" x="0px" y="0px"
	 viewBox="0 0 36 36" style="enable-background:new 0 0 36 36;" xml:space="preserve">
<style type="text/css">
	.st0{fill:none;stroke:#FFFFFF;stroke-width:2;stroke-miterlimit:10;}
</style>
<path class="st0" d="M21.5,15.8c0-2-2-3-3.5-3s-3.5,1.1-3.5,3c0,1.2,0.9,2,3.5,2.6s3.5,1.3,3.5,2.5c0,1.9-2,3-3.5,3s-3.5-1-3.5-3"/>
<line class="st0" x1="18" y1="10" x2="18" y2="12.8"/>
<line class="st0" x1="18" y1="23.9" x2="18" y2="26.6"/>
<path class="st0" d="M18,32.3L18,32.3c-7.7,0-14-6.3-14-14l0,0c0-7.7,6.3-14,14-14l0,0c7.7,0,14,6.3,14,14l0,0
	C32,26,25.7,32.3,18,32.3z"/>
</svg>
