<?xml version="1.0" encoding="utf-8"?>
<!-- Generator: Adobe Illustrator 24.0.0, SVG Export Plug-In . SVG Version: 6.00 Build 0)  -->
<svg version="1.1" id="Layer_1" xmlns="http://www.w3.org/2000/svg" xmlns:xlink="http://www.w3.org/1999/xlink" x="0px" y="0px"
	 viewBox="0 0 36 36" style="enable-background:new 0 0 36 36;" xml:space="preserve">
<style type="text/css">
	.st0{fill:#FFFFFF;}
</style>
<g id="Layer_1_1_">
	<path class="st0" d="M30.9,9.3h-18c-0.6,0-1-0.4-1-1s0.4-1,1-1h18c0.6,0,1,0.4,1,1S31.4,9.3,30.9,9.3z"/>
	<path class="st0" d="M30.9,16.3h-18c-0.6,0-1-0.4-1-1s0.4-1,1-1h18c0.6,0,1,0.4,1,1S31.4,16.3,30.9,16.3z"/>
	<path class="st0" d="M30.9,23.3h-18c-0.6,0-1-0.4-1-1s0.4-1,1-1h18c0.6,0,1,0.4,1,1S31.4,23.3,30.9,23.3z"/>
	<path class="st0" d="M30.9,30.3h-18c-0.6,0-1-0.4-1-1s0.4-1,1-1h18c0.6,0,1,0.4,1,1S31.4,30.3,30.9,30.3z"/>
</g>
<circle class="st0" cx="6.9" cy="8.3" r="2"/>
<circle class="st0" cx="6.9" cy="15.3" r="2"/>
<circle class="st0" cx="6.9" cy="22.2" r="2"/>
<circle class="st0" cx="6.9" cy="29.1" r="2"/>
</svg>
