<?xml version="1.0" encoding="utf-8"?>
<!-- Generator: Adobe Illustrator 26.0.1, SVG Export Plug-In . SVG Version: 6.00 Build 0)  -->
<svg version="1.1" id="Layer_1" xmlns="http://www.w3.org/2000/svg" xmlns:xlink="http://www.w3.org/1999/xlink" x="0px" y="0px"
	 viewBox="0 0 36 36" style="enable-background:new 0 0 36 36;" xml:space="preserve">
<style type="text/css">
	.st0{fill:#FFFFFF;}
	.st1{fill:none;stroke:#FFFFFF;stroke-width:2;stroke-linecap:round;stroke-linejoin:round;stroke-miterlimit:10;}
</style>
<ellipse transform="matrix(0.963 -0.2695 0.2695 0.963 -7.0561 5.1933)" class="st0" cx="15.4" cy="28.3" rx="4.7" ry="4"/>
<path class="st1" d="M19,27V5.3c0,0,2.1,0.2,4.9,3c2.4,2.4,3.3,4.3,3.3,4.3"/>
<g>
	<path class="st0" d="M5.1,16.9c3.4-4.7,8.8-4.4,13.5-2.4c4.3,1.7,8.4,3.3,12.2-0.3c-0.4,1.1-1.2,2.1-2.3,2.9
		c-5.4,3.8-11.7-1.7-17.2-1.8C9.5,15.1,7.3,15.9,5.1,16.9L5.1,16.9z"/>
</g>
<g>
	<path class="st0" d="M5.1,22.2c3.4-4.7,8.8-4.4,13.5-2.4c4.3,1.7,8.4,3.3,12.2-0.3c-0.4,1.1-1.2,2.1-2.3,2.9
		c-5.4,3.8-11.7-1.7-17.2-1.8C9.5,20.4,7.3,21.2,5.1,22.2L5.1,22.2z"/>
</g>
</svg>
