<?xml version="1.0" encoding="utf-8"?>
<!-- Generator: Adobe Illustrator 26.0.3, SVG Export Plug-In . SVG Version: 6.00 Build 0)  -->
<svg version="1.1" id="Layer_1" xmlns="http://www.w3.org/2000/svg" xmlns:xlink="http://www.w3.org/1999/xlink" x="0px" y="0px"
	 viewBox="0 0 36 36" style="enable-background:new 0 0 36 36;" xml:space="preserve">
<style type="text/css">
	.st0{fill:none;stroke:#666666;stroke-width:2;stroke-miterlimit:10;}
	.st1{fill:#666666;}
</style>
<line class="st0" x1="7.5" y1="4.8" x2="7.5" y2="31.8"/>
<path class="st1" d="M7.5,23.9L7.5,23.9c-1.7,0-3-1.2-3-3l0,0c0-1.8,1.3-3,3-3l0,0c1.7,0,3,1.2,3,3l0,0C10.5,22.5,9.2,23.9,7.5,23.9
	z"/>
<line class="st0" x1="14.5" y1="4.8" x2="14.5" y2="31.8"/>
<path class="st1" d="M14.5,16.9L14.5,16.9c-1.7,0-3-1.2-3-3l0,0c0-1.7,1.2-3,3-3l0,0c1.7,0,3,1.3,3,3l0,0
	C17.5,15.5,16.3,16.9,14.5,16.9z"/>
<line class="st0" x1="21.5" y1="4.8" x2="21.5" y2="31.8"/>
<path class="st1" d="M21.5,27.9L21.5,27.9c-1.8,0-3-1.2-3-3l0,0c0-1.8,1.2-3,3-3l0,0c1.7,0,3,1.2,3,3l0,0
	C24.5,26.6,23.2,27.9,21.5,27.9z"/>
<line class="st0" x1="28.5" y1="4.8" x2="28.5" y2="31.8"/>
<path class="st1" d="M28.5,13L28.5,13c-1.8,0-3-1.3-3-3l0,0c0-1.8,1.2-3,3-3l0,0c1.8,0,3,1.3,3,3l0,0C31.5,11.6,30.2,13,28.5,13z"/>
</svg>
